P1
51 51
000000000000000000000111111111000000000000000000000
000000000000000001111000000000111100000000000000000
000000000000000110000000000000000011000000000000000
000000000000011000000000000000000000110000000000000
000000000001100000000000000000000000001100000000000
000000000010000000000000000000000000000010000000000
000000000100000000000000000000000000000001000000000
000000001000000000000000000000000000000000100000000
000000010000000000000000000000000000000000010000000
000000100000000000000000000000000000000000001000000
000001000000000000000000000000000000000000000100000
000010000000000000000000000000000000000000000010000
000010000000000000000000000000000000000000000010000
000100000000000000000000000000000000000000000001000
000100000000000000000000000000000000000000000001000
001000000000000000000000000000000000000000000000100
001000000000000000000000000000000000000000000000100
010000000000000000000000000000000000000000000000010
010000000000000000000000000000000000000000000000010
010000000000000000000000000000000000000000000000010
010000000000000000000000000000000000000000000000010
100000000000000000000000000000000000000000000000001
100000000000000000000000000000000000000000000000001
100000000000000000000000000000000000000000000000001
100000000000000000000000000000000000000000000000001
100000000000000000000000000000000000000000000000001
100000000000000000000000000000000000000000000000001
100000000000000000000000000000000000000000000000001
100000000000000000000000000000000000000000000000001
100000000000000000000000000000000000000000000000001
010000000000000000000000000000000000000000000000010
010000000000000000000000000000000000000000000000010
010000000000000000000000000000000000000000000000010
010000000000000000000000000000000000000000000000010
001000000000000000000000000000000000000000000000100
001000000000000000000000000000000000000000000000100
000100000000000000000000000000000000000000000001000
000100000000000000000000000000000000000000000001000
000010000000000000000000000000000000000000000010000
000010000000000000000000000000000000000000000010000
000001000000000000000000000000000000000000000100000
000000100000000000000000000000000000000000001000000
000000010000000000000000000000000000000000010000000
000000001000000000000000000000000000000000100000000
000000000100000000000000000000000000000001000000000
000000000010000000000000000000000000000010000000000
000000000001100000000000000000000000001100000000000
000000000000011000000000000000000000110000000000000
000000000000000110000000000000000011000000000000000
000000000000000001111000000000111100000000000000000
000000000000000000000111111111000000000000000000000
